# xmcd
# 
# Track frame offsets:
#     151
#     18500
#     38733
#     57253
#     69985
#     81651
#     98579
#     120394
#     139549
#     157882
# 
# Disc length: 2239
# 
# Revision: 5
# Processed by: cddbd v1.5.2PL0 Copyright (c) Steve Scherf et al.
# Submitted via: fre:ac v1.0.27
# 
DISCID=7608bd0a
DTITLE=Sixteen Horsepower - Folklore
DYEAR=2002
DGENRE=AltCountry
TTITLE0=Hutterite Mile
TTITLE1=Outlaw Song
TTITLE2=Blessed Persistence
TTITLE3=Alone And Forsaken
TTITLE4=Single Girl
TTITLE5=Beyond The Pale
TTITLE6=Horse Head Fiddle
TTITLE7=Sinnerman
TTITLE8=Flutter
TTITLE9=La Robe A Parasol
EXTD=YEAR: 2002 ID3G:   2
EXTT0=
EXTT1=
EXTT2=
EXTT3=
EXTT4=
EXTT5=
EXTT6=
EXTT7=
EXTT8=
EXTT9=
PLAYORDER=
